<svg width="95" height="95" viewBox="0 0 95 95" fill="none" xmlns="http://www.w3.org/2000/svg">
<g clip-path="url(#clip0_1_36)">
<path d="M38.5937 26.6119C48.4737 16.6784 73.1797 34.0575 38.5937 56.4062C4.0078 34.0575 28.7137 16.6844 38.5937 26.6119Z" fill="#DF3755"/>
<path d="M77.1875 38.5937C77.2003 46.8043 74.5826 54.8031 69.7181 61.4175C69.9556 61.5956 70.1812 61.7856 70.4009 61.9994L93.2603 84.8587C94.3744 85.9721 95.0006 87.4824 95.0012 89.0574C95.0017 90.6325 94.3766 92.1432 93.2633 93.2573C92.1499 94.3714 90.6396 94.9977 89.0646 94.9982C87.4895 94.9988 85.9788 94.3736 84.8647 93.2603L62.0053 70.4009C61.7904 70.1886 61.5919 69.9604 61.4115 69.7181H61.4234C54.428 74.8504 45.9072 77.4759 37.2363 77.1707C28.5654 76.8656 20.2502 73.6476 13.6329 68.0361C7.01555 62.4247 2.48206 54.7471 0.764112 46.2427C-0.953841 37.7382 0.24397 28.9029 4.16422 21.1628C8.08448 13.4227 14.4985 7.22933 22.371 3.58229C30.2435 -0.0647437 39.1153 -0.952686 47.5545 1.06178C55.9936 3.07624 63.5078 7.87558 68.8843 14.6852C74.2608 21.4948 77.1859 29.9175 77.1875 38.5937V38.5937ZM38.5937 71.25C42.8822 71.25 47.1287 70.4053 51.0907 68.7642C55.0528 67.123 58.6528 64.7176 61.6852 61.6852C64.7176 58.6528 67.123 55.0528 68.7642 51.0907C70.4053 47.1287 71.25 42.8822 71.25 38.5937C71.25 34.3053 70.4053 30.0588 68.7642 26.0967C67.123 22.1347 64.7176 18.5347 61.6852 15.5023C58.6528 12.4699 55.0528 10.0644 51.0907 8.42329C47.1287 6.78216 42.8822 5.93748 38.5937 5.93748C29.9328 5.93748 21.6265 9.37804 15.5023 15.5023C9.37805 21.6265 5.93749 29.9328 5.93749 38.5937C5.93749 47.2547 9.37805 55.561 15.5023 61.6852C21.6265 67.8094 29.9328 71.25 38.5937 71.25V71.25Z" fill="#E5E5E5"/>
</g>
<defs>
<clipPath id="clip0_1_36">
<rect width="95" height="95" fill="white"/>
</clipPath>
</defs>
</svg>
