<svg width="146" height="121" viewBox="0 0 146 121" fill="none" xmlns="http://www.w3.org/2000/svg">
<mask id="mask0_6_174" style="mask-type:alpha" maskUnits="userSpaceOnUse" x="25" y="8" width="71" height="105">
<path d="M37.8125 60.5H83.1875L78.65 110.917H42.35L37.8125 60.5Z" fill="white" stroke="white" stroke-width="4" stroke-linecap="round" stroke-linejoin="round"/>
<path d="M85.7083 45.375H35.2917C31.115 45.375 27.7292 48.7608 27.7292 52.9375C27.7292 57.1142 31.115 60.5 35.2917 60.5H85.7083C89.885 60.5 93.2708 57.1142 93.2708 52.9375C93.2708 48.7608 89.885 45.375 85.7083 45.375Z" stroke="white" stroke-width="4"/>
<path d="M60.5 20.1666C46.5774 20.1666 35.2917 31.4524 35.2917 45.375H85.7083C85.7083 31.4524 74.4226 20.1666 60.5 20.1666Z" fill="white" stroke="white" stroke-width="4"/>
<path d="M70.5833 10.0833L65.5417 20.1666" stroke="white" stroke-width="4" stroke-linecap="round"/>
</mask>
<g mask="url(#mask0_6_174)">
<path d="M0 0H121V121H0V0Z" fill="#DF3755"/>
</g>
<path d="M141.532 81.093C142.868 82.4289 143.625 84.2398 143.625 86.125C143.625 88.0102 142.868 89.8211 141.532 91.157C140.196 92.493 138.385 93.25 136.5 93.25H79.5C77.6104 93.25 75.798 92.493 74.462 91.157C73.1261 89.8211 72.375 88.0102 72.375 86.125C72.375 84.2398 73.1261 82.4289 74.462 81.093C75.798 79.757 77.6104 79 79.5 79H136.5C138.385 79 140.196 79.757 141.532 81.093ZM140.552 98.6977C140.998 99.143 141.25 99.7516 141.25 100.375V102.75C141.25 105.14 140.255 107.693 138.474 109.474C136.693 111.255 134.14 112.25 131.75 112.25H84.25C81.731 112.25 79.3145 111.255 77.5332 109.474C75.7505 107.693 74.75 105.14 74.75 102.75V100.375C74.75 99.7516 75.0009 99.143 75.4462 98.6977C75.8915 98.2523 76.4956 98 77.125 98H138.875C139.498 98 140.107 98.2523 140.552 98.6977V98.6977ZM77.4798 73.775C76.8177 73.4484 76.2388 72.9883 75.7846 72.4094C75.3304 71.8305 75.0157 71.1625 74.8613 70.45C74.707 69.7227 74.7203 68.9805 74.897 68.268C78.1611 55.4014 91.7461 45.75 108 45.75C124.254 45.75 137.836 55.4014 141.102 68.268C141.28 68.9805 141.295 69.7227 141.131 70.45C140.983 71.1625 140.671 71.8305 140.211 72.4094C139.632 72.9883 139.187 73.4484 138.519 73.775C137.866 74.0867 137.138 74.25 136.396 74.25H79.5995C78.8662 74.25 78.1403 74.0867 77.4798 73.775V73.775ZM125.323 58.3227C124.877 58.768 124.625 59.3766 124.625 60C124.625 60.475 124.759 60.9352 125.026 61.3211C125.293 61.707 125.53 62.0188 126.095 62.1969C126.525 62.2414 127 62.4195 127.46 62.3305C127.92 62.2414 128.351 62.0188 128.677 61.6773C129.019 61.3508 129.241 60.9203 129.33 60.4602C129.42 60 129.241 59.525 129.197 59.0945C129.019 58.5305 128.707 58.293 128.321 58.0258C127.935 57.7586 127.475 57.4914 127 57.4914C126.377 57.4914 125.768 57.8773 125.323 58.3227V58.3227ZM106.323 53.5712C105.877 54.0165 105.625 54.6206 105.625 55.25C105.625 55.7191 105.759 56.1852 106.026 56.5711C106.293 56.957 106.53 57.2688 107.095 57.4469C107.525 57.4914 108 57.6695 108.46 57.5805C108.92 57.4914 109.351 57.2688 109.677 56.9273C110.019 56.6008 110.241 56.1703 110.33 55.7131C110.42 55.253 110.241 54.775 110.197 54.3416C110.019 53.9066 109.707 53.5355 109.321 53.2758C108.935 53.0145 108.475 52.7414 108 52.7414C107.377 52.7414 106.768 53.1259 106.323 53.5712V53.5712ZM87.3227 58.3227C86.8773 58.768 86.625 59.3766 86.625 60C86.625 60.475 86.7586 60.9352 87.0258 61.3211C87.293 61.707 87.5305 62.0188 88.0945 62.1969C88.525 62.2414 89 62.4195 89.4602 62.3305C89.9203 62.2414 90.3508 62.0188 90.6773 61.6773C91.0188 61.3508 91.2414 60.9203 91.3305 60.4602C91.4195 60 91.2414 59.525 91.1969 59.0945C91.0188 58.5305 90.707 58.293 90.3211 58.0258C89.9352 57.7586 89.475 57.4914 89 57.4914C88.3766 57.4914 87.768 57.8773 87.3227 58.3227V58.3227Z" fill="#E5E5E5"/>
</svg>
