<svg width="116" height="116" viewBox="0 0 116 116" fill="none" xmlns="http://www.w3.org/2000/svg">
<g clip-path="url(#clip0_1_74)">
<path d="M68.0533 5.34266e-06C66.9041 -0.00126473 65.7658 0.22392 64.7037 0.662694C63.6415 1.10147 62.6761 1.74523 61.8628 2.5572C61.0495 3.36918 60.4041 4.33344 59.9636 5.39491C59.5231 6.45638 59.296 7.59425 59.2953 8.74351V21.17C39.8653 24.766 24.5195 40.078 20.9187 59.45H8.75801C7.59346 59.4226 6.43518 59.6283 5.35129 60.0551C4.26739 60.4818 3.27975 61.1209 2.44643 61.9349C1.61311 62.7488 0.950934 63.7211 0.498836 64.7947C0.0467383 65.8683 -0.186157 67.0214 -0.186157 68.1863C-0.186157 69.3511 0.0467383 70.5042 0.498836 71.5778C0.950934 72.6514 1.61311 73.6237 2.44643 74.4377C3.27975 75.2516 4.26739 75.8907 5.35129 76.3175C6.43518 76.7442 7.59346 76.9499 8.75801 76.9225H20.9187C22.992 87.9072 28.8362 97.8231 37.4419 104.958C46.0476 112.092 56.8747 115.998 68.0533 116C94.4917 116 116 94.5448 116 68.1838C116 44.8098 99.0833 25.288 76.8162 21.1748V8.74351C76.8162 3.91017 72.8915 5.34266e-06 68.0533 5.34266e-06ZM22.6828 15.3507C21.5157 15.3233 20.3549 15.5294 19.2687 15.9571C18.1824 16.3848 17.1926 17.0254 16.3574 17.8411C15.5223 18.6568 14.8587 19.6313 14.4056 20.7072C13.9525 21.7832 13.7191 22.9388 13.7191 24.1063C13.7191 25.2737 13.9525 26.4293 14.4056 27.5053C14.8587 28.5812 15.5223 29.5557 16.3574 30.3714C17.1926 31.1872 18.1824 31.8277 19.2687 32.2554C20.3549 32.6831 21.5157 32.8893 22.6828 32.8618C25.0087 32.8618 27.2395 31.9392 28.8859 30.2964C30.5324 28.6536 31.4599 26.4248 31.465 24.099C31.465 19.2657 27.521 15.3507 22.6828 15.3507ZM68.0533 37.8547C84.8153 37.8547 98.4695 51.4557 98.4695 68.1838C98.4695 84.9072 84.8153 98.5275 68.0533 98.5275C51.2817 98.5275 37.6372 84.9072 37.6372 68.1838C37.6372 51.4557 51.2865 37.8547 68.0533 37.8547ZM67.9712 49.474C57.594 49.474 49.155 57.884 49.155 68.2322C49.155 78.5803 57.594 87 67.9712 87C72.9527 87 77.7309 85.0241 81.2574 81.5057C84.784 77.9873 86.771 73.2137 86.7825 68.2322C86.7697 63.2524 84.7818 58.481 81.2551 54.9652C77.7284 51.4494 72.951 49.4763 67.9712 49.4788V49.474ZM67.9712 62.6062C69.4659 62.6062 70.8993 63.1999 71.9562 64.2568C73.0131 65.3137 73.6068 66.7472 73.6068 68.2418C73.6068 69.7365 73.0131 71.17 71.9562 72.2269C70.8993 73.2838 69.4659 73.8775 67.9712 73.8775C64.8537 73.8775 62.3162 71.34 62.3162 68.2322C62.3162 65.1195 64.8537 62.6062 67.9712 62.6062Z" fill="#E5E5E5"/>
<path d="M87 68C87 78.4934 78.4934 87 68 87C57.5066 87 49 78.4934 49 68C49 57.5066 57.5066 49 68 49C78.4934 49 87 57.5066 87 68ZM60.8969 68C60.8969 71.923 64.077 75.1031 68 75.1031C71.923 75.1031 75.1031 71.923 75.1031 68C75.1031 64.077 71.923 60.8969 68 60.8969C64.077 60.8969 60.8969 64.077 60.8969 68Z" fill="#DF3755"/>
</g>
<defs>
<clipPath id="clip0_1_74">
<rect width="116" height="116" fill="white"/>
</clipPath>
</defs>
</svg>
